<svg width="27" height="27" viewBox="0 0 27 27" xmlns="http://www.w3.org/2000/svg" xmlns:xlink="http://www.w3.org/1999/xlink"><title>75E573AB-E821-41B1-B4B7-A7040F9BF4AA@3x</title><defs><path d="M15.5 2.583c7.13 0 12.917 5.787 12.917 12.917S22.63 28.417 15.5 28.417 2.583 22.63 2.583 15.5 8.37 2.583 15.5 2.583zm5.585 9.078a1.235 1.235 0 1 0-1.746-1.746l-3.839 3.84-3.84-3.84a1.235 1.235 0 1 0-1.745 1.746l3.84 3.839-3.84 3.84a1.235 1.235 0 1 0 1.746 1.745l3.839-3.84 3.84 3.84a1.235 1.235 0 1 0 1.745-1.746l-3.84-3.839 3.84-3.84z" id="a"/></defs><g transform="translate(-2 -2)" fill="none" fill-rule="evenodd"><mask id="b" fill="#fff"><use xlink:href="#a"/></mask><g mask="url(#b)" fill="#FFF"><path d="M0 0h31v31H0z"/></g></g></svg>