<svg width="22" height="19" viewBox="0 0 22 19" xmlns="http://www.w3.org/2000/svg" xmlns:xlink="http://www.w3.org/1999/xlink"><title>E04623B8-BFF8-4938-9397-47FDE6A4069B@3x</title><defs><path d="M21.667 3.792c1.191 0 2.166 1.036 2.166 2.302v13.812c0 1.266-.975 2.302-2.166 2.302H4.333c-1.191 0-2.166-1.036-2.166-2.302l.01-13.812c0-1.266.965-2.302 2.156-2.302h17.334zm-.219 4.701a1.03 1.03 0 0 0 .416-.78v-1.37c0-.28-.185-.381-.416-.227L13 11.76 4.552 6.116c-.23-.154-.416-.058-.416.227v1.37c0 .279.185.627.416.78l8.032 5.315c.23.152.601.152.832 0l8.032-5.315z" id="a"/></defs><g transform="translate(-2 -3.5)" fill="none" fill-rule="evenodd"><mask id="b" fill="#fff"><use xlink:href="#a"/></mask><g mask="url(#b)" fill="#266CCD"><path d="M0 0h26v26H0z"/></g></g></svg>