<svg width="22" height="22" viewBox="0 0 22 22" xmlns="http://www.w3.org/2000/svg" xmlns:xlink="http://www.w3.org/1999/xlink"><title>A0F0BFFA-F6FF-4642-A8BF-D746B92B45F5@3x</title><defs><path d="M23.653 21.9l-5.606-5.647a.626.626 0 0 1-.069-.788c2.299-3.526 1.763-8.374-1.628-11.27-3.263-2.785-8.23-2.69-11.391.212-3.63 3.331-3.72 9-.274 12.45 2.94 2.942 7.489 3.299 10.83 1.089a.623.623 0 0 1 .79.069L21.9 23.65a.619.619 0 0 0 .878.002l.875-.876a.62.62 0 0 0 .001-.876zM6.436 15.105a6.15 6.15 0 0 1 0-8.683 6.138 6.138 0 0 1 8.676 0 6.15 6.15 0 0 1 0 8.683 6.138 6.138 0 0 1-8.676 0z" id="a"/></defs><g transform="translate(-2 -2)" fill="none" fill-rule="evenodd"><mask id="b" fill="#fff"><use xlink:href="#a"/></mask><g mask="url(#b)" fill="#292929"><path d="M0 0h26v26H0z"/></g></g></svg>