<svg width="212" height="62" viewBox="0 0 212 62" xmlns="http://www.w3.org/2000/svg" xmlns:xlink="http://www.w3.org/1999/xlink"><title>BA412CB7-D78E-4393-8B5A-BF739A704616@3x</title><defs><path id="a" d="M0 .035h26.638v19.787H0z"/><path id="c" d="M.12.387h44.853V45H.12z"/></defs><g fill="none" fill-rule="evenodd"><path d="M.88 22.188C.553 22.768.218 23.458 0 24c.464-.948.758-1.548 1-2l-.12.188M4 15c-.29.287-.518.578-.683.872A2.32 2.32 0 0 0 3 17c.309-.68.638-1.349 1-2m-2 4c.29-.602.639-1.303 1-2a49.744 49.744 0 0 0-1 2" fill="#050302"/><path fill="#1D1D1B" d="M44 56.5l1-.5zm.5.5l-.5.33a7.68 7.68 0 0 0 .5-.33"/><path d="M14.21 4c-3.339 2.093-4.129 2.793-6.674 5.431l-.92 1.082c-1.2 1.472-.683 3.068 1.857 4.536 1.299.751 3.019 1.405 5.039 1.951-.884-4.72-.193-7.087 1.488-10.049-1.442-.967-1.645-2-.79-2.951" fill="#FFF"/><g transform="translate(0 16)"><mask id="b" fill="#fff"><use xlink:href="#a"/></mask><path d="M3.142 15.049c4.687 2.682 13.682 4.386 23.496 4.773-5.365-5.343-7.383-8.006-9.878-11.953-4.6-.754-8.488-1.882-11.005-3.323-1.94-1.11-2.852-2.285-2.843-3.44a2.4 2.4 0 0 1 .27-1.07c-.26.553-.545 1.205-.821 1.863a85.098 85.098 0 0 0-.767 1.89c-.37 1.077-.514 1.504-.736 2.458C.726 6.815.566 7.57.314 8.763L.01 11.037c-.13 1.344.87 2.718 3.131 4.012" fill="#FFF" mask="url(#b)"/></g><path d="M1.638 40.18c.09.268.179.53.264.774l.09.23c.205.491.46 1.056.724 1.618.257.565.523 1.126.764 1.599.404.756 1.208 1.508 2.44 2.232 6.534 3.84 22.632 5.451 35.956 3.597A67.85 67.85 0 0 0 43 50.064c-3.352-2.808-6.825-5.46-10.17-8.276-14.417.24-26.262-2.054-30.87-5.696A32.03 32.03 0 0 1 .907 31c-.648.872-.911 1.239-.906 2.259l.036.289c-.01-.035-.026-.07-.035-.105.056.426.14.919.23 1.411.08.495.168.988.257 1.408.351 1.57.427 1.857 1.15 3.918" fill="#FFF"/><path d="M46.724 53.14c-1.666.42-3.592.78-5.757 1.063-11.58 1.51-25.572.198-31.25-2.93C8.963 50.858 8.393 50.43 8 50c1.195 1.294 1.323 1.404 3.456 3.236 1.818 1.395 2.249 1.651 4.318 2.881l1.465.757c4.007 1.905 12.863 2.673 20.241 1.711 2.862-.373 5.097-.954 6.579-1.643l.49-.25.777-.395.165-.084c1.646-1.063 1.75-1.7 1.233-3.073m15.274-23.304c.017-.818-.076-1.907-.113-2.725-.594-3.76-3.13-6.526-10.442-11.38C30.686 2.638 30.686 2.638 31.028.003l-.01-.001A.15.15 0 0 1 31.001 0c-3.425 1.918-4.14 6.573 11.898 17.865C55.287 26.53 62.11 31.302 60.897 38c.21-.778.42-1.832.596-2.618.358-2.067.366-2.263.505-5.546M57 46c.046-.08.463-.92.5-1l-.5 1" fill="#FFF"/><path d="M57.687 44.78s.781-2.15-.126-3.876c-.005-.01-.013-.015-.018-.024-1.934-4.531-7.327-8.742-14.137-13.726C14.809 6.225 26.486 1.086 30.747.009l-.006-.003S30.734.002 30.734 0C20.12.634 17.256 7.95 19.95 14.512c1.525 3.716 4.149 7.513 7.798 11.287 6.605 6.831 14.432 12.274 21.3 18.807l.437.396c3.823 3.271 2.303 6.805 1.431 7.998a5.94 5.94 0 0 0 .679-.531c1.267-1.172 1.342-1.26 3.274-3.503.725-.877 1.045-1.335 1.926-2.736v-.002l.311-.496.58-.951zm31.082-18.314c-7.308 0-12.461 5.585-12.461 13.422 0 7.526 5.153 12.647 12.615 12.647 7.769 0 12.385-5.587 12.385-12.725 0-7.836-5.231-13.344-12.539-13.344zm12.846 34.526v-5.587C97.538 60.061 93.461 62 87.461 62 75 62 66 52.613 66 39.655 66 26.543 75.077 17 87.692 17c6.154 0 10.385 2.017 13.923 6.75v-5.74H111v42.983h-9.385zm39.423-34.856c-7.167 0-12.406 5.476-12.406 13.189 0 7.79 5.24 13.266 12.637 13.266 7.32 0 12.405-5.4 12.405-13.189 0-7.636-5.316-13.266-12.636-13.266M143.195 62c-6.318 0-10.402-1.774-14.794-6.479v5.477H119V4h10.248v18.202c3.93-3.933 7.706-5.476 13.254-5.476 12.252 0 21.498 9.718 21.498 22.599C164 52.205 155.215 62 143.195 62" fill="#FFF"/><g transform="translate(167 17)"><mask id="d" fill="#fff"><use xlink:href="#c"/></mask><path d="M22.934 9.772c-6.13 0-10.32 3-11.95 8.46h23.823c-1.32-5.46-5.51-8.46-11.873-8.46m21.65 17.46h-33.29c1.242 5.153 5.742 8.384 11.873 8.384 4.268 0 6.829-1.154 9.467-4.23h11.252C41.015 40.154 32.09 45 23.4 45 10.285 45 .12 35.308.12 22.847.12 10.31 10.13.387 22.778.387c12.805 0 22.195 9.692 22.195 22.922 0 1.538-.078 2.461-.388 3.923" fill="#FFF" mask="url(#d)"/></g></g></svg>