<svg width="34" height="34" viewBox="0 0 34 34" xmlns="http://www.w3.org/2000/svg" xmlns:xlink="http://www.w3.org/1999/xlink"><title>F4A1F983-658A-41EB-8220-A644EA5C57E7@3x</title><defs><path d="M3.321 1.5A1.821 1.821 0 0 0 1.5 3.321V32.68c0 1.005.815 1.821 1.821 1.821h15.805V21.72h-4.3v-4.98h4.3v-3.672c0-4.263 2.604-6.584 6.406-6.584 1.821 0 3.386.136 3.843.197v4.454l-2.637.001c-2.068 0-2.469.983-2.469 2.425v3.18h4.932l-.642 4.98h-4.29V34.5h8.41a1.822 1.822 0 0 0 1.821-1.821V3.315A1.816 1.816 0 0 0 32.679 1.5H3.32z" id="a"/></defs><g transform="translate(-.862 -.776)" fill="none" fill-rule="evenodd"><mask id="b" fill="#fff"><use xlink:href="#a"/></mask><g mask="url(#b)" fill="#FFF"><path d="M0 0h36v36H0z"/></g></g></svg>