<svg width="34" height="34" viewBox="0 0 34 34" xmlns="http://www.w3.org/2000/svg" xmlns:xlink="http://www.w3.org/1999/xlink"><title>5F11FE1E-2FA7-406E-91C2-01935823DCFA</title><defs><path d="M7.795 33.153h-6.77V11.332h6.77v21.821zM4.412 8.349A3.93 3.93 0 0 1 .485 4.416 3.93 3.93 0 0 1 4.412.485a3.93 3.93 0 0 1 3.923 3.931 3.93 3.93 0 0 1-3.923 3.933zm28.741 24.804h-6.765V22.541c0-2.53-.047-5.785-3.52-5.785-3.52 0-4.062 2.756-4.062 5.602v10.795h-6.765V11.332h6.494v2.982h.091c.904-1.716 3.112-3.525 6.406-3.525 6.856 0 8.121 4.52 8.121 10.395v11.969z" id="a"/></defs><use fill="#3B5998" xlink:href="#a" transform="translate(.362)" fill-rule="evenodd"/></svg>