<svg width="34" height="34" viewBox="0 0 34 34" xmlns="http://www.w3.org/2000/svg" xmlns:xlink="http://www.w3.org/1999/xlink"><title>A33A37DC-F8FA-4C89-8175-2291A0453552@3x</title><defs><path d="M8.885 34.5h-6.84V12.457h6.84V34.5zM5.467 9.444A3.97 3.97 0 0 1 1.5 5.471 3.97 3.97 0 0 1 5.467 1.5 3.97 3.97 0 0 1 9.43 5.471a3.97 3.97 0 0 1-3.963 3.973zM34.5 34.5h-6.834V23.78c0-2.556-.047-5.844-3.555-5.844-3.557 0-4.104 2.784-4.104 5.66V34.5h-6.833V12.457h6.56v3.012h.092c.913-1.733 3.143-3.56 6.47-3.56 6.926 0 8.204 4.565 8.204 10.5V34.5z" id="a"/></defs><g transform="translate(-.948 -.776)" fill="#266CCD" fill-rule="evenodd"><mask id="b"><use xlink:href="#a"/></mask><g mask="url(#b)"><path d="M0 0h36v36H0z"/></g></g></svg>