<svg width="34" height="28" viewBox="0 0 34 28" xmlns="http://www.w3.org/2000/svg" xmlns:xlink="http://www.w3.org/1999/xlink"><title>9B9350EE-D8E5-43D9-AB68-2E5D179F5186@3x</title><defs><path d="M29.287 6.44a6.678 6.678 0 0 0-4.94-2.19c-3.737 0-6.769 3.109-6.769 6.942 0 .545.059 1.072.175 1.58-5.627-.289-10.615-3.05-13.956-7.255a7.068 7.068 0 0 0-.916 3.494 6.985 6.985 0 0 0 3.012 5.778 6.647 6.647 0 0 1-3.069-.865v.084c0 3.365 2.334 6.172 5.434 6.808a6.454 6.454 0 0 1-1.784.244 6.6 6.6 0 0 1-1.274-.123c.861 2.757 3.36 4.765 6.323 4.819a13.37 13.37 0 0 1-8.408 2.973c-.546 0-1.086-.032-1.615-.095a18.846 18.846 0 0 0 10.379 3.116c12.454 0 19.262-10.577 19.262-19.752 0-.302-.005-.603-.017-.9A13.889 13.889 0 0 0 34.5 7.507a13.26 13.26 0 0 1-3.887 1.092 6.929 6.929 0 0 0 2.977-3.84 13.31 13.31 0 0 1-4.303 1.682z" id="a"/></defs><g transform="translate(-.862 -3.862)" fill="none" fill-rule="evenodd"><mask id="b" fill="#fff"><use xlink:href="#a"/></mask><g mask="url(#b)" fill="#FFF"><path d="M0 0h36v36H0z"/></g></g></svg>