<svg width="34" height="28" viewBox="0 0 34 28" xmlns="http://www.w3.org/2000/svg" xmlns:xlink="http://www.w3.org/1999/xlink"><title>3B282692-16D5-41CB-B6AA-A753E313847A</title><defs><path d="M27.993 2.376A6.61 6.61 0 0 0 23.1.207c-3.698 0-6.7 3.078-6.7 6.873a7 7 0 0 0 .173 1.564c-5.57-.287-10.508-3.02-13.815-7.182a6.997 6.997 0 0 0-.907 3.459 6.915 6.915 0 0 0 2.982 5.72 6.58 6.58 0 0 1-3.038-.857v.083c0 3.331 2.31 6.11 5.379 6.74a6.39 6.39 0 0 1-1.766.242 6.53 6.53 0 0 1-1.262-.122c.854 2.729 3.327 4.717 6.26 4.77a13.235 13.235 0 0 1-8.323 2.943c-.541 0-1.076-.032-1.6-.094A18.656 18.656 0 0 0 10.76 27.43c12.33 0 19.069-10.47 19.069-19.553 0-.3-.005-.598-.017-.89a13.75 13.75 0 0 0 3.342-3.558c-1.2.546-2.493.916-3.848 1.082A6.86 6.86 0 0 0 32.252.71a13.177 13.177 0 0 1-4.26 1.665z" id="a"/></defs><use fill="#1DA1F2" xlink:href="#a" transform="translate(.362)" fill-rule="evenodd"/></svg>