<svg width="34" height="24" viewBox="0 0 34 24" xmlns="http://www.w3.org/2000/svg" xmlns:xlink="http://www.w3.org/1999/xlink"><title>FB579AA2-EE76-4F7D-90C5-363F04E1F231@3x</title><defs><path d="M33.93 10.299c-.404-1.755-1.84-3.05-3.568-3.243-4.092-.457-8.234-.46-12.357-.457-4.123-.002-8.266 0-12.358.457-1.727.193-3.162 1.488-3.566 3.243-.575 2.5-.581 5.227-.581 7.8 0 2.574 0 5.302.575 7.8.403 1.755 1.838 3.05 3.566 3.244 4.092.457 8.234.46 12.358.457 4.124.002 8.265 0 12.357-.457 1.727-.194 3.163-1.488 3.567-3.243.575-2.5.577-5.228.577-7.8 0-2.574.005-5.302-.57-7.801zM13.74 23.222V12.308l10.492 5.474-10.492 5.44z" id="a"/></defs><g transform="translate(-.862 -5.862)" fill="none" fill-rule="evenodd"><mask id="b" fill="#fff"><use xlink:href="#a"/></mask><use fill="#000" fill-rule="nonzero" xlink:href="#a"/><g mask="url(#b)" fill="#FFF"><path d="M0 0h36v36H0z"/></g></g></svg>