<svg width="16" height="16" viewBox="0 0 16 16" xmlns="http://www.w3.org/2000/svg" xmlns:xlink="http://www.w3.org/1999/xlink"><title>B583D4D6-A44C-4AB8-BCDA-5B79A5276FAC@3x</title><defs><path d="M13.435 13.056A5.912 5.912 0 0 0 15.022 9c0-.817-.16-1.599-.478-2.344A6.02 6.02 0 0 0 13.21 4.7a5.815 5.815 0 0 0-1.956-1.27v.324c0 .408-.15.757-.451 1.045-.3.289-.655.433-1.064.433H8.261v1.514a.698.698 0 0 1-.226.523.764.764 0 0 1-.55.217H6.008v.764H8.26a3 3 0 0 1 3 3v.743h.734c.324 0 .619.099.883.297a1.6 1.6 0 0 1 .56.766zM8.261 14.95v-1.443c-.409 0-.763-.15-1.064-.45-.3-.301-.45-.656-.45-1.064v-.74L3.158 7.667c-.12.457-.18.901-.18 1.334 0 .998.24 1.941.72 2.83a6.032 6.032 0 0 0 1.894 2.1 5.875 5.875 0 0 0 2.668 1.02zM9 1.5c1.37 0 2.638.343 3.804 1.028a7.108 7.108 0 0 1 2.668 2.668A7.376 7.376 0 0 1 16.5 9c0 1.37-.343 2.638-1.028 3.804a7.108 7.108 0 0 1-2.668 2.668A7.376 7.376 0 0 1 9 16.5a7.376 7.376 0 0 1-3.804-1.028 7.243 7.243 0 0 1-2.668-2.686A7.343 7.343 0 0 1 1.5 9c0-1.358.343-2.62 1.028-3.786a7.381 7.381 0 0 1 2.686-2.686A7.343 7.343 0 0 1 9 1.5z" id="a"/></defs><g transform="translate(-1 -1)" fill="none" fill-rule="evenodd"><mask id="b" fill="#fff"><use xlink:href="#a"/></mask><g mask="url(#b)" fill="#292929"><path d="M0 0h18v18H0z"/></g></g></svg>