<svg width="12" height="23" viewBox="0 0 12 23" xmlns="http://www.w3.org/2000/svg" xmlns:xlink="http://www.w3.org/1999/xlink"><title>5C9EC92C-71CB-4BCD-B313-715D50AE6AA2@3x</title><defs><path d="M7.265 10.101l5.532-7.818c.112-.159.299-.152.406 0l5.532 7.818a.2.2 0 0 1-.163.316H7.428a.2.2 0 0 1-.163-.316zm0 5.787a.2.2 0 0 1 .163-.315h11.144a.2.2 0 0 1 .163.315l-5.532 7.829c-.107.152-.294.159-.406 0l-5.532-7.829z" id="a"/></defs><g transform="translate(-7 -1.5)" fill="none" fill-rule="evenodd"><mask id="b" fill="#fff"><use xlink:href="#a"/></mask><g mask="url(#b)" fill="#266CCD"><path d="M0 0h26v26H0z"/></g></g></svg>