<svg width="51" height="50" viewBox="0 0 51 50" xmlns="http://www.w3.org/2000/svg" xmlns:xlink="http://www.w3.org/1999/xlink"><title>F2CF0894-681B-45D2-B842-767DDB1B323B@3x</title><defs><path id="a" d="M.007.048h49.538v49.425H.007z"/></defs><g fill="none" fill-rule="evenodd"><g transform="translate(.61 .203)"><mask id="b" fill="#fff"><use xlink:href="#a"/></mask><path d="M0 24.76C0 11.112 11.09.048 24.772.048c13.682 0 24.773 11.064 24.773 24.712-1.077 0-24.773 3.224-24.773 3.224L0 24.76z" fill="#D80027" mask="url(#b)"/><path d="M49.545 24.76c0 13.648-11.091 24.713-24.773 24.713C11.091 49.473 0 38.408 0 24.76" fill="#000" mask="url(#b)"/></g><path fill="#FFDA44" d="M22.207 19.447l2.225 1.509-.847 2.444 2.223-1.512 2.226 1.51-.851-2.443 2.223-1.512-2.75.001-.85-2.443-.849 2.444z"/><path d="M31.302 13.86a11.984 11.984 0 0 0-6.105-1.658v3.234a8.86 8.86 0 0 1 4.513 1.225c4.31 2.527 5.792 8.145 3.303 12.522-2.488 4.377-8.02 5.882-12.329 3.355a9.021 9.021 0 0 1-3.016-2.89l-2.66 1.783a12.211 12.211 0 0 0 4.084 3.908c5.83 3.42 13.313 1.383 16.68-4.539 3.366-5.922 1.361-13.522-4.47-16.94z" fill="#FFDA44"/><path d="M17.813 22.6c-.873 1.525-.287 3.437 1.309 4.27l10.698 5.585c-.727 1.27-.341 2.816.989 3.511l2.89 1.51c1.33.695 2.998.228 3.726-1.042l1.58-2.76L17.813 22.6z" fill="#FFDA44"/></g></svg>