<svg width="50" height="50" viewBox="0 0 50 50" xmlns="http://www.w3.org/2000/svg" xmlns:xlink="http://www.w3.org/1999/xlink"><title>CA543106-2CE3-4460-8542-CACB5833E827@3x</title><defs><path id="a" d="M.007.118h49.944v17.374H.007z"/></defs><g fill="none" fill-rule="evenodd"><g transform="translate(0 16.22)"><mask id="b" fill="#fff"><use xlink:href="#a"/></mask><path d="M1.18 1.204A24.955 24.955 0 0 0 0 8.804c0 2.652.414 5.205 1.18 7.602l23.796 1.086 23.796-1.086a24.961 24.961 0 0 0 1.18-7.6 24.96 24.96 0 0 0-1.18-7.602L24.976.118 1.18 1.204z" fill="#F3F3F3" mask="url(#b)"/><path d="M49.951 8.805c0-1.482-.13-2.933-.377-4.344H.377a25.134 25.134 0 0 0 0 8.687h49.197c.247-1.41.377-2.861.377-4.343z" fill="#000" mask="url(#b)"/></g><path d="M24.976 50c11.143 0 20.58-7.298 23.796-17.374H1.18C4.395 42.702 13.833 50 24.976 50zm0-49.951C13.833.049 4.396 7.347 1.18 17.423h47.59C45.556 7.347 36.12.05 24.976.05z" fill="#338AF3"/></g></svg>