<svg width="51" height="50" viewBox="0 0 51 50" xmlns="http://www.w3.org/2000/svg" xmlns:xlink="http://www.w3.org/1999/xlink"><title>AF193B95-10E0-4481-9FF0-645494591AA6@3x</title><defs><path id="a" d="M.007.089h34.02v44.883H.007z"/></defs><g fill="none" fill-rule="evenodd"><path d="M36.48 2.52A24.818 24.818 0 0 0 25.646.05c-3.883 0-7.557.888-10.833 2.472l-2.166 22.443 2.166 22.442a24.813 24.813 0 0 0 10.833 2.473c3.882 0 7.557-.89 10.832-2.473l2.167-22.442L36.479 2.52z" fill="#D80027"/><g transform="translate(.732 2.433)"><mask id="b" fill="#fff"><use xlink:href="#a"/></mask><path fill="#FFDA44" mask="url(#b)" d="M24.914 13.864l2.151 6.62h6.962l-5.632 4.092 2.151 6.62-5.632-4.091-5.63 4.091 2.15-6.62-5.631-4.092h6.96z"/><path d="M14.082.089C5.75 4.119 0 12.653 0 22.53c0 9.877 5.749 18.411 14.082 22.441V.089z" fill="#496E2D" mask="url(#b)"/></g><path d="M36.48 2.522v44.883c8.333-4.03 14.082-12.564 14.082-22.441 0-9.878-5.749-18.413-14.083-22.442z" fill="#FFDA44"/></g></svg>